<mxfile host="app.diagrams.net" modified="2021-03-19T06:29:18.892Z" agent="5.0 (Windows NT 10.0; Win64; x64) AppleWebKit/537.36 (KHTML, like Gecko) Chrome/89.0.4389.90 Safari/537.36 Edg/89.0.774.54" etag="L-TjITL72AHvSSYgYsrJ" version="14.4.3" type="github" pages="4">
  <diagram id="CU7gDSIqdIDptVDChsVD" name="第 1 页">
    <mxGraphModel dx="852" dy="622" grid="1" gridSize="10" guides="1" tooltips="1" connect="1" arrows="1" fold="1" page="1" pageScale="1" pageWidth="827" pageHeight="1169" math="0" shadow="0">
      <root>
        <mxCell id="0" />
        <mxCell id="1" parent="0" />
        <mxCell id="Ql-JcypuXvmP04w7l1U9-1" value="" style="shape=parallelogram;perimeter=parallelogramPerimeter;whiteSpace=wrap;html=1;fixedSize=1;size=40;" parent="1" vertex="1">
          <mxGeometry x="240" y="160" width="200" height="80" as="geometry" />
        </mxCell>
        <mxCell id="Ql-JcypuXvmP04w7l1U9-2" value="" style="endArrow=none;html=1;exitX=0;exitY=1;exitDx=0;exitDy=0;entryX=0.545;entryY=0.008;entryDx=0;entryDy=0;entryPerimeter=0;" parent="1" source="Ql-JcypuXvmP04w7l1U9-1" target="Ql-JcypuXvmP04w7l1U9-1" edge="1">
          <mxGeometry width="50" height="50" relative="1" as="geometry">
            <mxPoint x="300" y="140" as="sourcePoint" />
            <mxPoint x="350" y="90" as="targetPoint" />
          </mxGeometry>
        </mxCell>
        <mxCell id="Ql-JcypuXvmP04w7l1U9-3" value="" style="endArrow=none;html=1;entryX=0.801;entryY=1.008;entryDx=0;entryDy=0;entryPerimeter=0;" parent="1" target="Ql-JcypuXvmP04w7l1U9-1" edge="1">
          <mxGeometry width="50" height="50" relative="1" as="geometry">
            <mxPoint x="350" y="160" as="sourcePoint" />
            <mxPoint x="430" y="200" as="targetPoint" />
          </mxGeometry>
        </mxCell>
        <mxCell id="Ql-JcypuXvmP04w7l1U9-4" value="&lt;font face=&quot;Times New Roman&quot;&gt;A&lt;/font&gt;" style="text;html=1;strokeColor=none;fillColor=none;align=center;verticalAlign=middle;whiteSpace=wrap;rounded=0;" parent="1" vertex="1">
          <mxGeometry x="210" y="230" width="30" height="30" as="geometry" />
        </mxCell>
        <mxCell id="Ql-JcypuXvmP04w7l1U9-5" value="&lt;font face=&quot;Times New Roman&quot;&gt;B&lt;/font&gt;" style="text;html=1;strokeColor=none;fillColor=none;align=center;verticalAlign=middle;whiteSpace=wrap;rounded=0;" parent="1" vertex="1">
          <mxGeometry x="410" y="230" width="30" height="30" as="geometry" />
        </mxCell>
        <mxCell id="Ql-JcypuXvmP04w7l1U9-6" value="&lt;font face=&quot;Times New Roman&quot;&gt;C&lt;/font&gt;" style="text;html=1;strokeColor=none;fillColor=none;align=center;verticalAlign=middle;whiteSpace=wrap;rounded=0;" parent="1" vertex="1">
          <mxGeometry x="440" y="140" width="30" height="30" as="geometry" />
        </mxCell>
        <mxCell id="Ql-JcypuXvmP04w7l1U9-7" value="&lt;font face=&quot;Times New Roman&quot;&gt;D&lt;/font&gt;" style="text;html=1;strokeColor=none;fillColor=none;align=center;verticalAlign=middle;whiteSpace=wrap;rounded=0;" parent="1" vertex="1">
          <mxGeometry x="230" y="140" width="30" height="30" as="geometry" />
        </mxCell>
        <mxCell id="Ql-JcypuXvmP04w7l1U9-8" value="&lt;font face=&quot;Times New Roman&quot;&gt;M&lt;/font&gt;" style="text;html=1;strokeColor=none;fillColor=none;align=center;verticalAlign=middle;whiteSpace=wrap;rounded=0;" parent="1" vertex="1">
          <mxGeometry x="340" y="130" width="30" height="30" as="geometry" />
        </mxCell>
      </root>
    </mxGraphModel>
  </diagram>
  <diagram id="B-dXKSq37tFNyzmX3Wxa" name="第 2 页">
    <mxGraphModel dx="852" dy="622" grid="1" gridSize="10" guides="1" tooltips="1" connect="1" arrows="1" fold="1" page="1" pageScale="1" pageWidth="827" pageHeight="1169" math="0" shadow="0">
      <root>
        <mxCell id="oUTlbEwOPzoVaxnml-jZ-0" />
        <mxCell id="oUTlbEwOPzoVaxnml-jZ-1" parent="oUTlbEwOPzoVaxnml-jZ-0" />
        <mxCell id="vVwH9-Els67GX4vX5xS9-0" value="" style="shape=parallelogram;perimeter=parallelogramPerimeter;whiteSpace=wrap;html=1;fixedSize=1;size=40;" parent="oUTlbEwOPzoVaxnml-jZ-1" vertex="1">
          <mxGeometry x="240" y="160" width="200" height="80" as="geometry" />
        </mxCell>
        <mxCell id="vVwH9-Els67GX4vX5xS9-3" value="&lt;font face=&quot;Times New Roman&quot;&gt;A&lt;/font&gt;" style="text;html=1;strokeColor=none;fillColor=none;align=center;verticalAlign=middle;whiteSpace=wrap;rounded=0;" parent="oUTlbEwOPzoVaxnml-jZ-1" vertex="1">
          <mxGeometry x="210" y="230" width="30" height="30" as="geometry" />
        </mxCell>
        <mxCell id="vVwH9-Els67GX4vX5xS9-4" value="&lt;font face=&quot;Times New Roman&quot;&gt;B&lt;/font&gt;" style="text;html=1;strokeColor=none;fillColor=none;align=center;verticalAlign=middle;whiteSpace=wrap;rounded=0;" parent="oUTlbEwOPzoVaxnml-jZ-1" vertex="1">
          <mxGeometry x="410" y="230" width="30" height="30" as="geometry" />
        </mxCell>
        <mxCell id="vVwH9-Els67GX4vX5xS9-5" value="&lt;font face=&quot;Times New Roman&quot;&gt;C&lt;/font&gt;" style="text;html=1;strokeColor=none;fillColor=none;align=center;verticalAlign=middle;whiteSpace=wrap;rounded=0;" parent="oUTlbEwOPzoVaxnml-jZ-1" vertex="1">
          <mxGeometry x="440" y="140" width="30" height="30" as="geometry" />
        </mxCell>
        <mxCell id="vVwH9-Els67GX4vX5xS9-6" value="&lt;font face=&quot;Times New Roman&quot;&gt;D&lt;/font&gt;" style="text;html=1;strokeColor=none;fillColor=none;align=center;verticalAlign=middle;whiteSpace=wrap;rounded=0;" parent="oUTlbEwOPzoVaxnml-jZ-1" vertex="1">
          <mxGeometry x="230" y="140" width="30" height="30" as="geometry" />
        </mxCell>
        <mxCell id="vVwH9-Els67GX4vX5xS9-7" value="&lt;font face=&quot;Times New Roman&quot;&gt;M&lt;/font&gt;" style="text;html=1;strokeColor=none;fillColor=none;align=center;verticalAlign=middle;whiteSpace=wrap;rounded=0;" parent="oUTlbEwOPzoVaxnml-jZ-1" vertex="1">
          <mxGeometry x="290" y="230" width="30" height="30" as="geometry" />
        </mxCell>
        <mxCell id="vVwH9-Els67GX4vX5xS9-8" value="" style="endArrow=none;html=1;exitX=0.201;exitY=0.008;exitDx=0;exitDy=0;exitPerimeter=0;entryX=0.804;entryY=1;entryDx=0;entryDy=0;entryPerimeter=0;" parent="oUTlbEwOPzoVaxnml-jZ-1" source="vVwH9-Els67GX4vX5xS9-0" target="vVwH9-Els67GX4vX5xS9-0" edge="1">
          <mxGeometry width="50" height="50" relative="1" as="geometry">
            <mxPoint x="280" y="220" as="sourcePoint" />
            <mxPoint x="330" y="170" as="targetPoint" />
          </mxGeometry>
        </mxCell>
        <mxCell id="vVwH9-Els67GX4vX5xS9-9" value="" style="endArrow=none;html=1;entryX=0.354;entryY=0.992;entryDx=0;entryDy=0;entryPerimeter=0;" parent="oUTlbEwOPzoVaxnml-jZ-1" target="vVwH9-Els67GX4vX5xS9-0" edge="1">
          <mxGeometry width="50" height="50" relative="1" as="geometry">
            <mxPoint x="280" y="160" as="sourcePoint" />
            <mxPoint x="410" y="290" as="targetPoint" />
          </mxGeometry>
        </mxCell>
        <mxCell id="vVwH9-Els67GX4vX5xS9-10" value="" style="endArrow=none;html=1;exitX=0.345;exitY=1;exitDx=0;exitDy=0;exitPerimeter=0;entryX=1;entryY=0;entryDx=0;entryDy=0;" parent="oUTlbEwOPzoVaxnml-jZ-1" source="vVwH9-Els67GX4vX5xS9-0" target="vVwH9-Els67GX4vX5xS9-0" edge="1">
          <mxGeometry width="50" height="50" relative="1" as="geometry">
            <mxPoint x="370" y="160" as="sourcePoint" />
            <mxPoint x="420" y="110" as="targetPoint" />
          </mxGeometry>
        </mxCell>
      </root>
    </mxGraphModel>
  </diagram>
  <diagram id="Eh5woJ1dog_Q9VL6s8kI" name="第 3 页">
    <mxGraphModel dx="852" dy="622" grid="1" gridSize="10" guides="1" tooltips="1" connect="1" arrows="1" fold="1" page="1" pageScale="1" pageWidth="827" pageHeight="1169" math="0" shadow="0">
      <root>
        <mxCell id="1-BU3A1oYxMbQZA22agc-0" />
        <mxCell id="1-BU3A1oYxMbQZA22agc-1" parent="1-BU3A1oYxMbQZA22agc-0" />
        <mxCell id="XK6O_t6zRstZ6FOO7Og6-0" value="" style="shape=parallelogram;perimeter=parallelogramPerimeter;whiteSpace=wrap;html=1;fixedSize=1;size=40;" parent="1-BU3A1oYxMbQZA22agc-1" vertex="1">
          <mxGeometry x="240" y="160" width="200" height="80" as="geometry" />
        </mxCell>
        <mxCell id="XK6O_t6zRstZ6FOO7Og6-3" value="&lt;font face=&quot;Times New Roman&quot;&gt;A&lt;/font&gt;" style="text;html=1;strokeColor=none;fillColor=none;align=center;verticalAlign=middle;whiteSpace=wrap;rounded=0;" parent="1-BU3A1oYxMbQZA22agc-1" vertex="1">
          <mxGeometry x="210" y="230" width="30" height="30" as="geometry" />
        </mxCell>
        <mxCell id="XK6O_t6zRstZ6FOO7Og6-4" value="&lt;font face=&quot;Times New Roman&quot;&gt;B&lt;/font&gt;" style="text;html=1;strokeColor=none;fillColor=none;align=center;verticalAlign=middle;whiteSpace=wrap;rounded=0;" parent="1-BU3A1oYxMbQZA22agc-1" vertex="1">
          <mxGeometry x="410" y="230" width="30" height="30" as="geometry" />
        </mxCell>
        <mxCell id="XK6O_t6zRstZ6FOO7Og6-5" value="&lt;font face=&quot;Times New Roman&quot;&gt;C&lt;/font&gt;" style="text;html=1;strokeColor=none;fillColor=none;align=center;verticalAlign=middle;whiteSpace=wrap;rounded=0;" parent="1-BU3A1oYxMbQZA22agc-1" vertex="1">
          <mxGeometry x="440" y="140" width="30" height="30" as="geometry" />
        </mxCell>
        <mxCell id="XK6O_t6zRstZ6FOO7Og6-6" value="&lt;font face=&quot;Times New Roman&quot;&gt;D&lt;/font&gt;" style="text;html=1;strokeColor=none;fillColor=none;align=center;verticalAlign=middle;whiteSpace=wrap;rounded=0;" parent="1-BU3A1oYxMbQZA22agc-1" vertex="1">
          <mxGeometry x="230" y="140" width="30" height="30" as="geometry" />
        </mxCell>
        <mxCell id="XK6O_t6zRstZ6FOO7Og6-8" value="" style="endArrow=none;html=1;exitX=0.195;exitY=-0.016;exitDx=0;exitDy=0;exitPerimeter=0;entryX=0.804;entryY=1;entryDx=0;entryDy=0;entryPerimeter=0;" parent="1-BU3A1oYxMbQZA22agc-1" source="XK6O_t6zRstZ6FOO7Og6-0" target="XK6O_t6zRstZ6FOO7Og6-0" edge="1">
          <mxGeometry width="50" height="50" relative="1" as="geometry">
            <mxPoint x="400" y="440" as="sourcePoint" />
            <mxPoint x="450" y="390" as="targetPoint" />
          </mxGeometry>
        </mxCell>
        <mxCell id="XK6O_t6zRstZ6FOO7Og6-9" value="" style="endArrow=none;html=1;entryX=0;entryY=0.75;entryDx=0;entryDy=0;exitX=1;exitY=0.25;exitDx=0;exitDy=0;" parent="1-BU3A1oYxMbQZA22agc-1" source="XK6O_t6zRstZ6FOO7Og6-3" target="XK6O_t6zRstZ6FOO7Og6-5" edge="1">
          <mxGeometry width="50" height="50" relative="1" as="geometry">
            <mxPoint x="330" y="430" as="sourcePoint" />
            <mxPoint x="380" y="380" as="targetPoint" />
          </mxGeometry>
        </mxCell>
        <mxCell id="XK6O_t6zRstZ6FOO7Og6-10" value="" style="endArrow=none;html=1;" parent="1-BU3A1oYxMbQZA22agc-1" edge="1">
          <mxGeometry width="50" height="50" relative="1" as="geometry">
            <mxPoint x="330" y="280" as="sourcePoint" />
            <mxPoint x="350" y="120" as="targetPoint" />
          </mxGeometry>
        </mxCell>
        <mxCell id="XK6O_t6zRstZ6FOO7Og6-11" value="&lt;font face=&quot;Times New Roman&quot;&gt;O&lt;/font&gt;" style="text;html=1;strokeColor=none;fillColor=none;align=center;verticalAlign=middle;whiteSpace=wrap;rounded=0;" parent="1-BU3A1oYxMbQZA22agc-1" vertex="1">
          <mxGeometry x="340" y="170" width="30" height="30" as="geometry" />
        </mxCell>
        <mxCell id="XK6O_t6zRstZ6FOO7Og6-12" value="&lt;font face=&quot;Times New Roman&quot;&gt;E&lt;/font&gt;" style="text;html=1;strokeColor=none;fillColor=none;align=center;verticalAlign=middle;whiteSpace=wrap;rounded=0;" parent="1-BU3A1oYxMbQZA22agc-1" vertex="1">
          <mxGeometry x="330" y="240" width="30" height="30" as="geometry" />
        </mxCell>
        <mxCell id="XK6O_t6zRstZ6FOO7Og6-13" value="&lt;font face=&quot;Times New Roman&quot;&gt;F&lt;/font&gt;" style="text;html=1;strokeColor=none;fillColor=none;align=center;verticalAlign=middle;whiteSpace=wrap;rounded=0;" parent="1-BU3A1oYxMbQZA22agc-1" vertex="1">
          <mxGeometry x="350" y="130" width="30" height="30" as="geometry" />
        </mxCell>
      </root>
    </mxGraphModel>
  </diagram>
  <diagram id="mH5Netuil4QlJEftNjF4" name="第 4 页">
    <mxGraphModel dx="406" dy="296" grid="1" gridSize="10" guides="1" tooltips="1" connect="1" arrows="1" fold="1" page="1" pageScale="1" pageWidth="827" pageHeight="1169" math="0" shadow="0">
      <root>
        <mxCell id="6VGTqcuQWZRmQJmoOY5Q-0" />
        <mxCell id="6VGTqcuQWZRmQJmoOY5Q-1" parent="6VGTqcuQWZRmQJmoOY5Q-0" />
        <mxCell id="zrOLJno-_TdEIc98MOF8-0" value="" style="endArrow=classic;html=1;" edge="1" parent="6VGTqcuQWZRmQJmoOY5Q-1">
          <mxGeometry width="50" height="50" relative="1" as="geometry">
            <mxPoint x="200" y="320" as="sourcePoint" />
            <mxPoint x="440" y="320" as="targetPoint" />
          </mxGeometry>
        </mxCell>
        <mxCell id="zrOLJno-_TdEIc98MOF8-1" value="" style="endArrow=classic;html=1;" edge="1" parent="6VGTqcuQWZRmQJmoOY5Q-1">
          <mxGeometry width="50" height="50" relative="1" as="geometry">
            <mxPoint x="320" y="440" as="sourcePoint" />
            <mxPoint x="320" y="200" as="targetPoint" />
          </mxGeometry>
        </mxCell>
        <mxCell id="zrOLJno-_TdEIc98MOF8-2" value="" style="endArrow=none;html=1;edgeStyle=orthogonalEdgeStyle;curved=1;" edge="1" parent="6VGTqcuQWZRmQJmoOY5Q-1">
          <mxGeometry width="50" height="50" relative="1" as="geometry">
            <mxPoint x="210" y="290" as="sourcePoint" />
            <mxPoint x="300" y="220" as="targetPoint" />
          </mxGeometry>
        </mxCell>
        <mxCell id="zrOLJno-_TdEIc98MOF8-3" value="" style="endArrow=none;html=1;edgeStyle=orthogonalEdgeStyle;curved=1;" edge="1" parent="6VGTqcuQWZRmQJmoOY5Q-1">
          <mxGeometry width="50" height="50" relative="1" as="geometry">
            <mxPoint x="430" y="340" as="sourcePoint" />
            <mxPoint x="340" y="410" as="targetPoint" />
          </mxGeometry>
        </mxCell>
        <mxCell id="zrOLJno-_TdEIc98MOF8-5" value="" style="endArrow=none;html=1;edgeStyle=orthogonalEdgeStyle;curved=1;" edge="1" parent="6VGTqcuQWZRmQJmoOY5Q-1">
          <mxGeometry width="50" height="50" relative="1" as="geometry">
            <mxPoint x="430" y="300" as="sourcePoint" />
            <mxPoint x="333" y="220" as="targetPoint" />
            <Array as="points">
              <mxPoint x="330" y="300" />
              <mxPoint x="330" y="220" />
            </Array>
          </mxGeometry>
        </mxCell>
      </root>
    </mxGraphModel>
  </diagram>
</mxfile>
